<?xml version="1.0" standalone="no"?>
<!DOCTYPE svg PUBLIC "-//W3C//DTD SVG 20010904//EN"
 "http://www.w3.org/TR/2001/REC-SVG-20010904/DTD/svg10.dtd">
<svg version="1.0" xmlns="http://www.w3.org/2000/svg"
 width="512.000000pt" height="512.000000pt" viewBox="0 0 512.000000 512.000000"
 preserveAspectRatio="xMidYMid meet">
<metadata>
Created by potrace 1.14, written by Peter Selinger 2001-2017
</metadata>
<g transform="translate(0.000000,512.000000) scale(0.100000,-0.100000)"
fill="#000000" stroke="none">
<path d="M2265 5109 c-16 -5 -39 -11 -50 -13 -11 -2 -47 -12 -80 -21 -101 -28
-355 -96 -450 -120 -49 -13 -184 -48 -300 -79 -115 -31 -262 -70 -325 -87 -63
-17 -137 -37 -165 -44 -27 -8 -129 -35 -225 -61 -96 -25 -190 -52 -209 -60
-55 -23 -114 -78 -146 -135 -34 -63 -43 -161 -20 -232 7 -23 61 -222 119 -442
58 -220 115 -436 126 -480 63 -233 102 -382 105 -395 3 -8 12 -42 21 -75 9
-33 17 -67 19 -75 2 -8 37 -141 78 -295 42 -154 84 -314 95 -355 11 -41 34
-129 52 -195 17 -66 33 -127 35 -136 12 -60 48 -159 67 -185 74 -100 203 -149
320 -122 24 5 50 11 58 13 8 2 89 23 180 48 91 25 181 48 200 53 45 10 38 8
90 24 25 7 50 14 55 16 6 1 30 7 55 14 25 7 52 14 60 16 8 2 42 11 75 20 33 9
67 18 75 20 25 6 268 70 405 107 72 19 220 58 330 87 110 29 220 63 245 76 89
45 156 140 166 237 4 42 -3 86 -34 208 -70 270 -103 393 -118 444 -9 28 -18
61 -20 75 -3 14 -13 54 -24 90 -17 60 -45 163 -105 395 -40 150 -62 236 -85
320 -12 44 -23 87 -25 95 -1 8 -9 35 -16 60 -7 25 -13 50 -15 55 -1 6 -18 71
-38 145 -20 74 -38 142 -40 150 -2 8 -14 51 -25 95 -12 44 -23 87 -25 95 -2 8
-32 119 -65 245 -68 253 -89 299 -169 356 -71 51 -182 72 -257 48z"/>
<path d="M2934 4322 c4 -7 69 -246 276 -1027 99 -370 125 -469 160 -605 21
-80 50 -190 65 -245 59 -219 31 -359 -100 -490 -76 -77 -180 -125 -345 -160
-16 -3 -167 -43 -265 -70 -33 -9 -67 -18 -75 -20 -8 -2 -49 -13 -90 -24 -41
-11 -160 -42 -265 -70 -104 -28 -248 -66 -320 -85 -71 -19 -173 -46 -225 -60
-52 -14 -143 -38 -202 -52 -60 -15 -108 -32 -108 -37 0 -6 3 -8 6 -4 3 3 17 2
29 -3 13 -5 115 -34 227 -64 112 -31 219 -60 238 -66 33 -10 537 -147 570
-155 8 -3 49 -14 90 -25 41 -12 125 -34 185 -51 61 -16 151 -40 200 -53 107
-29 179 -28 253 4 55 24 126 92 143 138 9 23 95 336 189 687 17 61 48 175 69
255 75 276 172 635 176 652 2 9 13 52 25 95 23 82 60 216 114 423 19 69 57
211 86 315 29 105 54 217 55 250 4 71 -16 134 -62 199 -54 76 -75 85 -508 202
-55 15 -131 35 -170 46 -38 11 -101 28 -140 38 -38 11 -112 30 -163 45 -97 26
-127 30 -118 17z"/>
<path d="M4060 3066 c0 -5 -156 -587 -175 -651 -8 -27 -28 -102 -45 -165 -16
-63 -41 -157 -56 -207 -14 -51 -27 -101 -29 -110 -18 -77 -205 -767 -226 -833
-56 -179 -213 -298 -402 -305 -76 -2 -99 2 -342 70 -93 26 -177 48 -185 50 -8
2 -107 29 -220 60 -113 31 -243 67 -290 80 -47 12 -130 34 -185 49 -55 15
-114 31 -131 37 -17 5 -40 11 -50 13 -22 5 -423 114 -441 121 -22 8 -15 -1 51
-67 36 -35 311 -309 613 -609 408 -405 561 -551 596 -568 70 -34 158 -38 232
-11 58 22 92 55 1032 993 702 701 979 984 1000 1021 25 45 28 61 28 136 0 76
-3 90 -30 137 -19 34 -154 178 -382 408 -317 321 -363 365 -363 351z"/>
</g>
</svg>
